<?xml version="1.0" standalone="no"?>
<!DOCTYPE svg PUBLIC "-//W3C//DTD SVG 20010904//EN"
 "http://www.w3.org/TR/2001/REC-SVG-20010904/DTD/svg10.dtd">
<svg version="1.0" xmlns="http://www.w3.org/2000/svg"
 width="400.000000pt" height="400.000000pt" viewBox="0 0 400.000000 400.000000"
 preserveAspectRatio="xMidYMid meet">
<metadata>
Created by potrace 1.14, written by Peter Selinger 2001-2017
</metadata>
<g transform="translate(0.000000,400.000000) scale(0.100000,-0.100000)"
fill="#000000" stroke="none">
<path d="M185 3360 c-3 -5 -14 -10 -24 -10 -10 0 -26 -9 -37 -21 -17 -19 -19
-39 -20 -203 -1 -99 -2 -185 -4 -191 -1 -5 -1 -12 0 -15 6 -15 5 -448 -2 -461
-4 -9 -4 -19 -1 -23 9 -9 10 -438 1 -457 -4 -9 -4 -19 -1 -23 9 -9 10 -438 1
-457 -4 -9 -4 -19 -1 -23 9 -9 10 -438 1 -457 -4 -9 -4 -19 -1 -23 4 -4 8 -27
9 -51 2 -46 14 -65 49 -80 27 -11 3682 -13 3721 -1 65 18 61 -59 60 1254 l-1
1194 -28 22 c-20 16 -40 22 -68 21 -22 -1 -42 2 -45 7 -3 5 -11 5 -17 1 -16
-10 -137 -11 -143 -1 -3 5 -11 5 -17 1 -17 -10 -137 -11 -144 0 -2 4 -10 4
-16 -1 -14 -10 -127 -10 -144 1 -6 4 -14 4 -17 -1 -6 -10 -146 -9 -162 1 -6 3
-14 3 -18 0 -10 -10 -128 -11 -147 -1 -9 4 -19 4 -23 0 -10 -9 -78 -10 -97 -1
-9 5 -19 5 -23 1 -10 -9 -78 -10 -97 -1 -9 5 -19 5 -23 1 -10 -9 -78 -10 -97
-1 -9 5 -19 5 -23 1 -10 -9 -78 -10 -97 -1 -9 5 -19 5 -23 1 -10 -9 -78 -10
-97 -1 -9 5 -19 5 -23 1 -10 -9 -78 -10 -97 -1 -9 5 -19 5 -23 1 -10 -9 -78
-10 -97 -1 -9 5 -19 5 -23 1 -10 -9 -78 -10 -97 -1 -9 5 -19 5 -23 2 -9 -9
-107 -10 -113 -1 -2 5 -10 5 -16 1 -16 -10 -137 -11 -143 -1 -3 5 -11 5 -17 1
-16 -10 -137 -11 -143 -1 -3 5 -11 5 -17 1 -16 -10 -137 -11 -143 -1 -3 5 -11
5 -17 1 -18 -12 -217 -10 -217 2 0 7 -3 7 -8 0 -9 -13 -105 -13 -114 0 -5 6
-8 6 -8 0 0 -13 -110 -13 -110 0 0 7 -3 7 -8 0 -9 -13 -105 -13 -114 0 -5 7
-8 7 -8 0 0 -11 -95 -13 -106 -2 -4 3 -14 3 -23 -1 -20 -10 -82 -9 -98 1 -7 5
-13 4 -13 0 0 -11 -90 -10 -107 0 -7 5 -13 4 -13 0 0 -11 -90 -10 -107 0 -7 5
-13 4 -13 0 0 -11 -90 -10 -107 0 -6 4 -14 3 -18 -3z m3585 -1253 l0 -1083
-1750 0 -1750 0 0 1083 0 1083 1750 0 1750 0 0 -1083z"/>
<path d="M1383 2792 c24 -252 204 -474 453 -558 40 -13 79 -24 87 -24 11 0 14
-16 14 -68 l-1 -68 -69 -18 c-235 -61 -419 -255 -473 -501 -7 -33 -13 -77 -14
-97 l0 -38 103 0 102 0 2 35 c6 103 63 219 147 299 37 36 165 106 191 106 8 0
11 -58 11 -192 -1 -106 1 -205 3 -220 l3 -28 99 0 99 0 1 28 c0 15 1 114 2
220 0 133 4 192 11 192 7 0 43 -15 81 -34 143 -68 251 -222 257 -364 l1 -42
105 0 104 0 -5 58 c-14 165 -105 343 -226 440 -25 21 -48 40 -51 43 -14 18
-151 80 -210 95 l-68 18 1 67 0 67 36 7 c57 11 161 54 221 93 162 105 277 293
296 480 l7 73 -104 -3 -103 -3 -4 -40 c-5 -58 -39 -154 -70 -200 -57 -84 -171
-169 -253 -189 l-26 -6 -1 198 c0 108 -1 207 -1 220 -1 21 -4 22 -100 22 -70
0 -100 -4 -103 -12 -2 -7 -3 -106 -3 -220 1 -154 -2 -208 -10 -208 -7 0 -45
16 -84 36 -144 72 -247 223 -253 367 l-1 37 -105 0 -105 0 6 -68z"/>
<path d="M1216 665 c-34 -31 -36 -85 -4 -115 12 -11 29 -21 37 -21 43 -4 59
-7 70 -13 6 -4 11 -3 11 2 0 12 123 10 132 -3 5 -7 8 -6 8 0 0 12 158 13 178
1 6 -4 12 -3 12 2 0 12 83 9 92 -3 5 -6 8 -6 8 2 0 12 30 10 50 -2 6 -3 10 -2
10 2 0 5 20 9 45 9 25 0 45 -5 45 -11 0 -7 3 -6 8 1 9 13 95 12 104 -1 5 -6 8
-6 8 2 0 12 69 11 89 -2 6 -3 11 -2 11 2 0 5 23 9 50 9 28 0 50 -5 50 -11 0
-6 3 -6 8 1 9 13 95 12 104 -1 5 -6 8 -6 8 2 0 12 69 11 89 -2 6 -3 11 -2 11
2 0 13 203 10 212 -2 5 -7 8 -6 8 1 0 6 24 10 64 9 55 -2 68 1 90 22 34 31 35
82 2 117 l-23 26 -780 0 -780 0 -27 -25z"/>
</g>
</svg>
